<svg width="82" height="82" viewBox="0 0 82 82" fill="none" xmlns="http://www.w3.org/2000/svg">
<path d="M30.75 48.6877C33.1087 48.6877 35.0209 46.7755 35.0209 44.4168C35.0209 42.0581 33.1087 40.146 30.75 40.146C28.3913 40.146 26.4792 42.0581 26.4792 44.4168C26.4792 46.7755 28.3913 48.6877 30.75 48.6877Z" fill="#323232"/>
<path d="M70.9641 29.3152L67.8208 36.1827C68.1283 37.7543 68.3333 39.3602 68.3333 41.0002C68.3333 56.0677 56.0675 68.3335 41 68.3335C25.9325 68.3335 13.6666 56.0677 13.6666 41.0002C13.6666 40.8293 13.7008 40.6585 13.6666 40.5218C22.55 37.1735 29.6908 30.306 33.2783 21.5593C39.565 29.2468 49.0975 34.1668 59.7916 34.1668C61.3291 34.1668 62.8325 34.0302 64.3358 33.8252L62.2858 29.3152L59.2791 22.721L52.685 19.7143L43.1525 15.3752L52.685 11.036L55.1108 9.94266C50.8058 7.961 46.0225 6.8335 41 6.8335C22.14 6.8335 6.83331 22.1402 6.83331 41.0002C6.83331 59.8602 22.14 75.1668 41 75.1668C59.86 75.1668 75.1666 59.8602 75.1666 41.0002C75.1666 35.9777 74.0391 31.1943 72.0916 26.8893L70.9641 29.3152V29.3152Z" fill="#323232"/>
<path d="M51.25 48.6877C53.6087 48.6877 55.5208 46.7755 55.5208 44.4168C55.5208 42.0581 53.6087 40.146 51.25 40.146C48.8913 40.146 46.9792 42.0581 46.9792 44.4168C46.9792 46.7755 48.8913 48.6877 51.25 48.6877Z" fill="#323232"/>
<path d="M70.3834 19.1332L66.625 27.3332L62.8667 19.1332L54.6667 15.3748L62.8667 11.6165L66.625 3.4165L70.3834 11.6165L78.5833 15.3748L70.3834 19.1332Z" fill="#323232"/>
</svg>
