<svg width="109" height="109" viewBox="0 0 109 109" fill="none" xmlns="http://www.w3.org/2000/svg">
<path d="M93.4221 67.4893L99.9167 60.9948L93.4221 54.5002L77.2083 70.7139L38.2862 31.7918L54.5 15.5781L48.0054 9.0835L41.5108 15.5781L35.0162 9.0835L25.2971 18.8027L18.8025 12.3081L12.3079 18.8027L18.8025 25.2972L9.08333 35.0164L15.5779 41.511L9.08333 48.0056L15.5779 54.5002L31.7917 38.2864L70.7137 77.2085L54.5 93.4222L60.9946 99.9168L67.4892 93.4222L73.9838 99.9168L83.7029 90.1977L90.1975 96.6923L96.6921 90.1977L90.1975 83.7031L99.9167 73.9839L93.4221 67.4893Z" fill="#323232"/>
</svg>
