<svg width="199" height="42" viewBox="0 0 199 42" fill="none" xmlns="http://www.w3.org/2000/svg">
<rect x="164.969" y="2.76855" width="14.6597" height="35.0786" rx="7.32986" fill="#FE5AD7"/>
<rect x="165.492" y="12.1926" width="9.42411" height="33.5079" rx="4.71206" transform="rotate(-90 165.492 12.1926)" fill="#FE5AD7"/>
<rect x="165.492" y="38.3707" width="9.42411" height="33.5079" rx="4.71206" transform="rotate(-90 165.492 38.3707)" fill="#FE5AD7"/>
<rect x="164.969" y="24.2346" width="6.28274" height="28.2723" rx="3.14137" transform="rotate(-90 164.969 24.2346)" fill="#FE5AD7"/>
<rect x="120.395" y="3.29211" width="14.6597" height="35.0786" rx="7.32986" fill="#03FF50"/>
<rect x="141.861" y="3.29211" width="14.6597" height="35.0786" rx="7.32986" fill="#03FF50"/>
<rect x="117.777" y="10.4913" width="14.6597" height="43.8945" rx="7.32986" transform="rotate(-44.8598 117.777 10.4913)" fill="#03FF50"/>
<rect x="73.1956" y="2.76855" width="14.6597" height="35.0786" rx="7.32986" fill="#1C6CFF"/>
<rect x="97.2794" y="2.76855" width="14.6597" height="35.0786" rx="7.32986" fill="#1C6CFF"/>
<path d="M102.674 23.5373C106.576 23.3469 109.845 26.4599 109.845 30.3673L109.845 30.696C109.845 34.6455 106.643 37.8472 102.694 37.8472L81.9334 37.8472C77.9751 37.8472 74.7663 34.6384 74.7663 30.6802C74.7663 26.597 78.1725 23.3389 82.2516 23.5202L83.4389 23.5729C85.3544 23.6581 87.0701 24.7833 87.9116 26.5062C89.7135 30.1959 94.8677 30.4704 97.0513 26.9928L97.5231 26.2415C98.5187 24.6559 100.226 23.6567 102.096 23.5655L102.674 23.5373Z" fill="#1C6CFF"/>
<rect x="21.5449" y="2.76904" width="14.6597" height="35.0786" rx="7.32986" fill="#FFFF01"/>
<rect x="51.3878" y="2.76904" width="14.6597" height="35.0786" rx="7.32986" fill="#FFFF01"/>
<rect x="20.4977" y="8.25952" width="12.5655" height="35.0786" rx="6.28274" transform="rotate(-40.1902 20.4977 8.25952)" fill="#FFFF01"/>
<rect x="44.7717" y="35.0815" width="12.5655" height="35.0786" rx="6.28274" transform="rotate(-139.919 44.7717 35.0815)" fill="#FFFF01"/>
<rect y="3.29211" width="14.6597" height="35.0786" rx="7.32986" fill="#FF7F00"/>
</svg>
